# xmcd
# 
# Track frame offsets:
#     150
#     13128
#     33417
#     53353
#     73780
#     104117
#     127800
#     142697
#     154530
#     172903
#     198296
#     214456
#     228928
# 
# Disc length: 3264
# 
# Revision: 18
# Processed by: cddbd v1.5.2PL0 Copyright (c) Steve Scherf et al.
# Submitted via: fre:ac v1.0.17
# 
DISCID=a80cbe0d
DTITLE=M - Le Tour de -M- CD1
DYEAR=2001
DGENRE=Rock
TTITLE0=Prélude
TTITLE1=Je Dis Aime
TTITLE2=Monde Virtuel
TTITLE3=Faut Oublier
TTITLE4=Souvenir Du Futur
TTITLE5=L'Amour Ma Thématique
TTITLE6=Le Mec Hamac
TTITLE7=La Fleur
TTITLE8=Onde Sensuelle
TTITLE9=Le Baptême
TTITLE10=Le Festival de Connes
TTITLE11=Au Suivant
TTITLE12=Le Blues De Soustons
EXTD=
EXTT0=
EXTT1=
EXTT2=
EXTT3=
EXTT4=
EXTT5=
EXTT6=
EXTT7=
EXTT8=
EXTT9=
EXTT10=
EXTT11=
EXTT12=
PLAYORDER=
